<svg width="14" height="14" viewBox="0 0 14 14" fill="none" xmlns="http://www.w3.org/2000/svg">
<path d="M2 9.5C2 8.94772 1.55228 8.5 1 8.5V8.5C0.447715 8.5 0 8.94772 0 9.5V11.25C0 12.7688 1.23122 14 2.75 14H4.5C5.05228 14 5.5 13.5523 5.5 13V13C5.5 12.4477 5.05228 12 4.5 12H3.75C2.7835 12 2 11.2165 2 10.25V9.5ZM0 4.5C0 5.05228 0.447715 5.5 1 5.5V5.5C1.55228 5.5 2 5.05228 2 4.5V3.75C2 2.7835 2.7835 2 3.75 2H4.5C5.05228 2 5.5 1.55228 5.5 1V1C5.5 0.447715 5.05228 0 4.5 0H2.75C1.23122 0 0 1.23122 0 2.75V4.5ZM12 10.25C12 11.2165 11.2165 12 10.25 12H9.5C8.94772 12 8.5 12.4477 8.5 13V13C8.5 13.5523 8.94772 14 9.5 14H11.25C12.7688 14 14 12.7688 14 11.25V9.5C14 8.94772 13.5523 8.5 13 8.5V8.5C12.4477 8.5 12 8.94772 12 9.5V10.25ZM9.5 0C8.94772 0 8.5 0.447715 8.5 1V1C8.5 1.55228 8.94772 2 9.5 2H10.25C11.2165 2 12 2.7835 12 3.75V4.5C12 5.05228 12.4477 5.5 13 5.5V5.5C13.5523 5.5 14 5.05228 14 4.5V2.75C14 1.23122 12.7688 0 11.25 0H9.5Z" fill="black"/>
</svg>
