<svg width="23" height="21" viewBox="0 0 23 21" fill="none" xmlns="http://www.w3.org/2000/svg">
<mask id="mask0_412_17" style="mask-type:alpha" maskUnits="userSpaceOnUse" x="0" y="4" width="19" height="13">
<path d="M0.00195312 3.99997H5.00098L12.001 11L18.001 17L0.00195312 17V3.99997Z" fill="#D9D9D9"/>
</mask>
<g mask="url(#mask0_412_17)">
<path d="M22.002 6.36915V14.6227C22.002 15.2607 21.236 15.6589 20.6233 15.342L16.8117 13.3588V13.9237C16.8117 15.6224 15.2844 17 13.4011 17H3.41256C1.52929 17 0.00195312 15.6224 0.00195312 13.9237V7.07624C0.00195312 5.37759 1.52929 3.99997 3.41256 3.99997H13.4056C15.2889 3.99997 16.8162 5.37759 16.8162 7.07624V7.64111L20.6278 5.65799C21.236 5.33289 22.002 5.7352 22.002 6.36915Z" fill="black"/>
</g>
<mask id="mask1_412_17" style="mask-type:alpha" maskUnits="userSpaceOnUse" x="7" y="4" width="16" height="13">
<path d="M7.00195 4H22.002V17H20.002L13.502 10.5L7.00195 4Z" fill="#D9D9D9"/>
</mask>
<g mask="url(#mask1_412_17)">
<path d="M22.002 6.36918V14.6227C22.002 15.2607 21.236 15.659 20.6233 15.342L16.8117 13.3589V13.9237C16.8117 15.6224 15.2844 17 13.4011 17H3.41256C1.52929 17 0.00195312 15.6224 0.00195312 13.9237V7.07627C0.00195312 5.37762 1.52929 4 3.41256 4H13.4056C15.2889 4 16.8162 5.37762 16.8162 7.07627V7.64114L20.6278 5.65802C21.236 5.33292 22.002 5.73523 22.002 6.36918Z" fill="black"/>
</g>
<path fill-rule="evenodd" clip-rule="evenodd" d="M19.0918 20.1525L-0.000113279 1.06066L1.06055 0L20.1524 19.0919L19.0918 20.1525Z" fill="black"/>
</svg>
